<svg width="203" height="122" viewBox="0 0 203 122" fill="none" xmlns="http://www.w3.org/2000/svg">
<path d="M64.3725 92.1169C64.2798 90.662 63.2761 89.8369 62.0135 89.8924C52.4224 90.3105 55.2879 109.185 42.4613 110.011C37.138 110.351 31.6566 106.48 31.6566 99.8096C31.6569 97.5939 32.3744 95.4379 33.7019 93.6639C35.0294 91.8899 36.8955 90.5934 39.0211 89.9681C41.1468 89.3429 43.4177 89.4226 45.4943 90.1953C47.5709 90.968 49.3415 92.3921 50.5414 94.2548L48.6467 95.1824C48.6407 95.1677 48.6358 95.1526 48.6319 95.1372L34.6845 101.963C35.4031 107.483 38.9218 109.598 42.5516 109.485C48.9422 109.284 51.3628 103.776 53.6209 98.5962V93.1598C53.6209 91.7804 53.009 90.6714 51.738 90.4397C53.3312 90.4397 55.2284 90.5772 56.5176 89.8323V92.8689C57.897 90.8569 59.6237 89.5041 62.1794 89.5265C62.944 89.5029 63.7012 89.6822 64.374 90.046C65.0468 90.4099 65.6113 90.9454 66.0102 91.5981C66.8521 93.2357 64.5672 93.7821 64.3725 92.1169ZM34.6456 101.62L48.5294 94.8249C47.5603 92.0247 45.5485 89.9185 41.9148 89.9185C36.2919 89.9185 34.5533 94.9582 34.5533 99.8091C34.5517 100.414 34.5825 101.019 34.6456 101.62ZM58.4026 109.805H51.7385C53.0093 109.573 53.6214 108.464 53.6214 107.085V99.4996C54.5469 97.3231 55.4068 95.1759 56.5176 93.4702V107.085C56.5176 108.464 57.1316 109.573 58.4026 109.805Z" fill="#F3E5D5"/>
<path d="M67.5091 90.4398C69.102 90.4398 70.9991 90.5773 72.2894 89.8324V93.3897C73.4413 90.4463 75.9252 89.5303 78.2018 89.5303C80.4235 89.5303 82.4185 90.9139 82.8168 93.5813C83.9337 90.4869 86.4771 89.5303 88.801 89.5303C91.2852 89.5303 93.4883 91.2612 93.4883 94.5807V107.085C93.4883 108.465 94.102 109.571 95.3704 109.805H88.7087C89.9797 109.571 90.5915 108.465 90.5915 107.085V94.2768C90.6078 88.6476 82.9504 89.8692 82.8888 94.8683V107.085C82.8888 108.465 83.5007 109.571 84.7714 109.805H78.1097C79.3784 109.571 79.9925 108.465 79.9925 107.085V94.2768C80.0091 88.6476 72.3514 89.8692 72.2899 94.8683V107.085C72.2899 108.465 72.9017 109.571 74.1727 109.805H67.5091C68.7799 109.571 69.3936 108.465 69.3936 107.085V93.1599C69.3936 91.7805 68.7799 90.6719 67.5091 90.4398Z" fill="#F3E5D5"/>
<path d="M148.222 90.4454C148.076 90.5225 147.93 90.6007 147.787 90.683C146.502 89.9444 145.041 89.5691 143.559 89.5974C137.736 89.5974 135.003 94.4917 135.003 99.8118C135.003 105.132 137.736 110.026 143.559 110.026C145.07 110.056 146.559 109.665 147.86 108.896C145.484 107.534 143.74 105.291 143.007 102.653C142.273 100.014 142.609 97.1929 143.942 94.8005C145.275 92.4082 147.496 90.6374 150.126 89.8721C152.755 89.1068 155.58 89.4086 157.989 90.7121C160.397 92.0157 162.195 94.2158 162.992 96.8357C163.789 99.4557 163.521 102.284 162.247 104.708C160.973 107.132 158.795 108.956 156.185 109.785C153.575 110.614 150.743 110.381 148.304 109.136C146.713 109.945 144.941 110.333 143.158 110.263C141.374 110.194 139.638 109.669 138.115 108.739C136.591 107.809 135.331 106.505 134.454 104.95C133.577 103.395 133.113 101.642 133.105 99.8574C133.097 98.0726 133.546 96.3154 134.409 94.7532C135.273 93.1909 136.521 91.8754 138.036 90.9321C139.551 89.9887 141.283 89.4487 143.066 89.3635C144.848 89.2783 146.623 89.6507 148.222 90.4454ZM148.749 90.7274C150.344 91.6391 151.671 92.9547 152.596 94.542C153.521 96.1293 154.012 97.9322 154.02 99.7695C154.027 101.607 153.551 103.414 152.638 105.008C151.726 106.603 150.409 107.929 148.822 108.854C148.666 108.761 148.515 108.662 148.367 108.558C150.9 106.713 152.114 103.357 152.114 99.8115C152.114 96.2362 150.88 92.8544 148.304 91.019C145.729 92.8547 144.494 96.2377 144.494 99.8115C144.494 105.131 147.226 110.026 153.05 110.026C158.874 110.026 161.605 105.131 161.605 99.8115C161.605 94.4914 158.874 89.5971 153.05 89.5971C151.539 89.567 150.05 89.9584 148.749 90.7274Z" fill="#F3E5D5"/>
<path d="M165.416 90.4398C167.009 90.4398 168.906 90.5773 170.197 89.8324V93.5813C171.361 90.684 173.923 89.5303 176.576 89.5303C186.998 89.5303 187.052 110.107 176.968 110.107C173.915 110.107 171.351 108.966 170.197 106.106V116.036C170.197 117.415 170.809 118.524 172.08 118.756H165.416C166.687 118.524 167.301 117.415 167.301 116.036V93.1599C167.3 91.7805 166.687 90.6719 165.416 90.4398ZM170.197 104.507C170.25 107.309 172.94 109.471 175.634 109.312C183.207 108.863 183.609 90.3806 175.539 90.2365C172.94 90.1894 170.25 92.3268 170.197 95.1289V104.507Z" fill="#F3E5D5"/>
<path d="M193.938 89.8942C189.391 89.8942 187.73 96.6992 195.62 98.391C206.642 101.429 202.961 109.777 195.09 110.099C191.539 110.245 187.02 108.397 186.85 104.501C186.755 102.616 189.395 102.918 188.794 104.421C187.069 107.603 191.249 109.746 195.108 109.746C200.374 109.746 203.881 103.673 194.578 101.109C185.164 98.5164 187.498 89.7338 193.942 89.5329C196.412 89.4569 198.761 90.592 199.243 92.3271C199.622 93.6902 198.134 93.6487 198.134 92.803C198.134 91.0064 196.368 89.8942 193.938 89.8942Z" fill="#F3E5D5"/>
<path d="M98.8359 109.207C98.2736 108.775 97.8229 108.214 97.5214 107.572C97.2199 106.931 97.0763 106.226 97.1027 105.517C97.0847 104.547 97.3002 103.587 97.7311 102.718C98.1496 101.901 98.6943 101.154 99.3452 100.506C99.9984 99.853 100.697 99.2471 101.436 98.6928C102.172 98.1407 102.866 97.6061 103.516 97.0892C104.113 96.6249 104.651 96.0898 105.119 95.4955C105.524 94.9899 105.746 94.3617 105.748 93.7138C105.747 93.4578 105.686 93.2056 105.569 92.9778C105.452 92.75 105.283 92.5532 105.076 92.4034C104.541 92.0201 103.891 91.8315 103.234 91.8689C102.534 91.8897 101.842 92.0278 101.187 92.2775C100.307 92.6084 99.4786 93.0639 98.7277 93.6299C99.0146 93.2693 99.3376 92.939 99.6918 92.6443C100.105 92.3183 100.552 92.0372 101.024 91.8057C101.663 91.4946 102.335 91.2589 103.028 91.1034C103.935 90.9021 104.862 90.8072 105.791 90.8206C107.769 90.8206 109.348 91.121 110.525 91.7218C111.649 92.2682 112.548 93.187 113.071 94.3218C113.621 95.6054 113.887 96.9927 113.851 98.3888V105.496C113.865 106.39 113.894 107.107 113.937 107.645C113.95 108.048 114.034 108.446 114.186 108.819C114.231 108.928 114.308 109.022 114.406 109.087C114.505 109.153 114.621 109.187 114.739 109.186C115.028 109.186 115.27 109.001 115.465 108.63C115.655 108.274 115.784 107.887 115.844 107.487C115.851 107.412 115.886 107.342 115.942 107.292C115.998 107.241 116.072 107.214 116.147 107.215C116.177 107.215 116.207 107.223 116.234 107.236C116.266 107.253 116.292 107.278 116.31 107.309C116.334 107.358 116.346 107.412 116.342 107.467L116.321 107.655C116.231 108.316 115.969 108.941 115.562 109.469C115.39 109.687 115.169 109.862 114.917 109.98C114.665 110.099 114.389 110.157 114.111 110.15C113.715 110.152 113.325 110.059 112.973 109.878C112.586 109.659 112.284 109.315 112.117 108.903C111.871 108.265 111.76 107.583 111.792 106.901C111.787 106.813 111.747 106.732 111.683 106.673C111.618 106.614 111.533 106.583 111.446 106.586C111.394 106.587 111.343 106.601 111.297 106.627C111.252 106.653 111.214 106.689 111.186 106.733C110.509 107.668 109.673 108.477 108.716 109.123C107.906 109.658 107.007 110.045 106.062 110.266C105.184 110.465 104.286 110.567 103.386 110.57C101.508 110.57 99.9913 110.115 98.8359 109.207ZM107.968 108.903C109.084 108.27 110.031 107.378 110.731 106.303C111.432 105.243 111.801 103.999 111.792 102.729V97.4244C111.806 96.6697 111.707 95.9173 111.5 95.1915C111.33 94.607 111.059 94.057 110.698 93.5667C110.379 93.1391 109.991 92.7672 109.55 92.4661C109.139 92.1879 108.695 91.9626 108.228 91.7954C107.793 91.6396 107.343 91.5272 106.885 91.4598C106.48 91.3997 106.071 91.3681 105.661 91.3655C105.444 91.4074 105.336 91.5122 105.336 91.6799C105.339 91.7339 105.354 91.7866 105.38 91.8339C105.406 91.8812 105.443 91.9219 105.488 91.9528C105.812 92.1775 106.07 92.4851 106.235 92.8437C106.383 93.1697 106.461 93.5234 106.463 93.8816C106.456 94.6553 106.206 95.4074 105.748 96.0305C105.227 96.7583 104.636 97.4324 103.982 98.0428C103.281 98.7068 102.581 99.3987 101.88 100.119C101.191 100.823 100.594 101.612 100.103 102.467C99.6141 103.332 99.3636 104.313 99.3776 105.307C99.3532 106.175 99.5993 107.028 100.082 107.75C100.55 108.427 101.189 108.97 101.934 109.322C102.697 109.692 103.535 109.882 104.383 109.878C105.643 109.876 106.881 109.54 107.968 108.903Z" fill="#F3E5D5"/>
<path d="M30.3431 95.6287C30.3431 104.234 25.2195 109.756 17.4099 109.756H8.65516V109.606C10.3465 109.606 11.0428 108.562 11.0428 105.926V88.7145C11.0428 86.0781 10.3465 85.0335 8.65516 85.0335V84.884H16.4648V85.0335C14.7735 85.0335 14.0772 86.0781 14.0772 88.7145V109.258H16.8131C22.8815 109.258 27.3088 104.135 27.3088 95.7777C27.3088 85.6303 20.7426 79.6118 13.0325 79.6118C6.86454 79.6118 2.33773 83.4914 2.33773 89.4608C2.33773 93.5891 4.52653 98.2651 9.10301 98.2651V98.5139C8.67735 98.5981 8.24319 98.6315 7.80966 98.6132C4.37738 98.6132 0 96.1759 0 90.1568C0 83.6408 5.12361 79.1143 13.2813 79.1143C22.7323 79.1143 30.3431 85.1829 30.3431 95.6287Z" fill="#F3E5D5"/>
<path d="M120.329 109.565C122.463 109.565 123.279 108.248 123.279 104.923V83.2118C123.279 79.8862 122.463 78.5684 120.329 78.5684V78.3799H130.055V78.5684C127.922 78.5684 127.106 79.8862 127.106 83.2118V108.75C129.546 108.782 131.947 109.361 134.134 110.444L139.091 113.267C146.056 117.472 149.382 118.476 152.142 118.476C156.158 118.476 159.296 116.28 161.178 111.699H161.429C159.358 118.664 156.597 121.174 151.578 121.174C148.754 121.174 145.366 120.358 138.526 116.405L131.185 112.138C128.612 110.633 126.73 109.754 122.965 109.754H120.329V109.565Z" fill="#F3E5D5"/>
<path d="M97.4958 89.5268C97.1052 85.5028 101.286 82.6998 105.015 83.8845C106.378 84.2855 107.518 85.0423 108.863 85.3771C111.421 85.9504 114.152 84.9489 115.949 83.0039C114.982 85.9776 111.558 87.7121 108.51 87.2224C107.515 87.0182 106.55 86.6867 105.639 86.2362C102.337 84.4898 98.7646 85.8191 97.4958 89.5268Z" fill="#F3E5D5"/>
<path d="M150.208 82.1522L151.765 83.0027L150.209 83.8544C149.764 84.0976 149.399 84.4631 149.156 84.9076L148.306 86.4642L147.454 84.9083C147.211 84.464 146.845 84.0988 146.401 83.8559L144.844 83.0054L146.4 82.1537C146.844 81.9105 147.21 81.545 147.453 81.1005L148.303 79.5439L149.155 81.0998C149.398 81.5441 149.764 81.9093 150.208 82.1522Z" fill="#F3E5D5"/>
<path d="M108.35 14.4655C104.916 14.4655 102.112 16.2866 102.112 18.5317C102.112 16.2866 99.3076 14.4655 95.8717 14.4655C99.3077 14.4655 102.112 12.6425 102.112 10.3994C102.112 12.6425 104.916 14.4655 108.35 14.4655Z" fill="#F3E5D5"/>
<path d="M92.0485 0C77.3461 0 68.1128 8.15781 68.1128 19.9025C68.1128 30.7505 76.0017 35.1426 82.1873 35.1426C82.9687 35.1756 83.7512 35.1156 84.5185 34.9638V34.5148C76.2706 34.5148 72.3261 26.0881 72.3261 18.6468C72.3261 7.88894 80.4839 0.896716 91.6008 0.896716C105.496 0.896716 117.33 11.7447 117.33 30.0326C117.33 41.0781 113.039 48.9886 106.436 52.4222V54.3259C116.525 51.5551 122.799 42.5476 122.799 29.7637C122.799 10.9367 109.082 0 92.0485 0ZM97.7864 10.6678V10.3989H83.7119V10.6678C86.7596 10.6678 88.0153 12.5513 88.0153 17.3024V48.3218C88.0153 53.0729 86.7596 54.9551 83.7119 54.9551V55.2239H97.785V54.3272H93.4829V17.3024C93.4829 12.5513 94.7386 10.6678 97.7864 10.6678Z" fill="#F3E5D5"/>
<path d="M134.413 58.6008C134.284 58.9275 134.156 59.2717 134.006 59.5916C133.892 59.8296 133.718 60.1617 133.599 60.3942C133.267 60.9714 132.901 61.5277 132.501 62.0599C130.097 65.1353 126.617 67.1856 122.761 67.7978C119.055 68.3772 115.321 67.5222 111.843 66.4077C105.857 64.4516 99.4669 61.5652 93.2316 64.1935C95.0089 62.6757 97.1948 61.9134 99.4776 61.6472C99.7218 60.4247 99.8305 59.1789 99.8017 57.9326V26.9133C99.8017 22.1622 98.8176 20.28 96.2444 20.28V20.0098H107.978V20.28C105.404 20.28 104.42 22.1622 104.42 26.9133V61.748C104.878 61.8126 105.33 61.8879 105.775 61.9766C111.558 63.0548 117.144 65.9802 123.1 65.2502C124.508 65.0739 125.886 64.7066 127.195 64.1585C127.344 64.0913 127.654 63.9595 127.803 63.895C128.104 63.7525 128.401 63.6019 128.7 63.4527C129.488 63.0222 130.246 62.5384 130.969 62.0048C131.234 61.8045 131.507 61.5706 131.77 61.3675L132.024 61.139C132.414 60.8056 132.787 60.4278 133.151 60.0662C133.284 59.9196 133.381 59.808 133.499 59.6776C133.818 59.3416 134.113 58.9557 134.413 58.6008Z" fill="#F3E5D5"/>
</svg>
