<svg width="134" height="81" viewBox="0 0 134 81" fill="none" xmlns="http://www.w3.org/2000/svg">
<path d="M42.5916 60.949C42.5303 59.9863 41.8662 59.4404 41.0308 59.4771C34.6849 59.7538 36.5809 72.242 28.0943 72.7882C24.5721 73.0137 20.9454 70.4518 20.9454 66.0388C20.9455 64.5728 21.4203 63.1462 22.2986 61.9725C23.177 60.7987 24.4117 59.9409 25.8181 59.5272C27.2245 59.1135 28.727 59.1662 30.101 59.6775C31.4749 60.1887 32.6465 61.131 33.4404 62.3634L32.1867 62.9772C32.1828 62.9675 32.1795 62.9575 32.177 62.9473L22.9488 67.4637C23.4242 71.1159 25.7523 72.515 28.1539 72.4403C32.3823 72.3074 33.9838 68.6629 35.4779 65.2359V61.6389C35.4779 60.7263 35.0731 59.9925 34.2321 59.8392C35.2862 59.8392 36.5415 59.9302 37.3945 59.4373V61.4465C38.3072 60.1153 39.4496 59.2202 41.1406 59.235C41.6465 59.2194 42.1474 59.338 42.5926 59.5788C43.0378 59.8195 43.4113 60.1738 43.6752 60.6057C44.2322 61.6892 42.7204 62.0507 42.5916 60.949ZM22.923 67.2367L32.1092 62.7407C31.4679 60.8879 30.1369 59.4944 27.7326 59.4944C24.0123 59.4944 22.862 62.8289 22.862 66.0385C22.8609 66.4387 22.8813 66.8387 22.923 67.2367ZM38.6417 72.6522H34.2324C35.0732 72.4986 35.4782 71.7652 35.4782 70.8525V65.8336C36.0906 64.3936 36.6595 62.9729 37.3945 61.8443V70.8525C37.3945 71.7652 37.8007 72.4986 38.6417 72.6522Z" fill="#113788"/>
<path d="M44.6669 59.8392C45.7209 59.8392 46.976 59.9302 47.8298 59.4373V61.791C48.5919 59.8435 50.2354 59.2374 51.7417 59.2374C53.2117 59.2374 54.5316 60.1529 54.7952 61.9178C55.5342 59.8704 57.217 59.2374 58.7546 59.2374C60.3982 59.2374 61.8559 60.3827 61.8559 62.579V70.8525C61.8559 71.7652 62.2619 72.4971 63.1012 72.6522H58.6935C59.5344 72.4971 59.9393 71.7652 59.9393 70.8525V62.3779C59.9501 58.6534 54.8835 59.4617 54.8428 62.7693V70.8525C54.8428 71.7652 55.2477 72.4971 56.0885 72.6522H51.6808C52.5202 72.4971 52.9265 71.7652 52.9265 70.8525V62.3779C52.9375 58.6534 47.8708 59.4617 47.8301 62.7693V70.8525C47.8301 71.7652 48.2349 72.4971 49.0759 72.6522H44.6669C45.5077 72.4971 45.9138 71.7652 45.9138 70.8525V61.6389C45.9138 60.7263 45.5077 59.9928 44.6669 59.8392Z" fill="#113788"/>
<path d="M98.0699 59.8427C97.9735 59.8937 97.8769 59.9454 97.782 59.9999C96.9321 59.5112 95.9653 59.2629 94.985 59.2816C91.1319 59.2816 89.324 62.5199 89.324 66.0399C89.324 69.5597 91.1319 72.7982 94.985 72.7982C95.9845 72.818 96.9697 72.559 97.8303 72.0502C96.2582 71.1494 95.1045 69.6652 94.6193 67.9195C94.1341 66.1737 94.3565 64.3071 95.2382 62.7242C96.12 61.1413 97.59 59.9697 99.3297 59.4634C101.069 58.957 102.939 59.1567 104.532 60.0192C106.126 60.8816 107.315 62.3374 107.842 64.0708C108.37 65.8043 108.193 67.6757 107.35 69.2795C106.507 70.8834 105.065 72.0903 103.339 72.6387C101.612 73.1871 99.7382 73.0329 98.1242 72.2093C97.0714 72.7444 95.8993 73.0011 94.7192 72.9551C93.5392 72.9091 92.3905 72.5619 91.3826 71.9466C90.3746 71.3312 89.5409 70.4682 88.9607 69.4396C88.3806 68.411 88.0733 67.251 88.0681 66.0701C88.0629 64.8892 88.36 63.7265 88.9311 62.6929C89.5022 61.6592 90.3283 60.7889 91.3308 60.1647C92.3333 59.5405 93.4788 59.1832 94.6584 59.1268C95.838 59.0705 97.0124 59.3169 98.0699 59.8427ZM98.4184 60.0292C99.4739 60.6325 100.352 61.5029 100.964 62.5532C101.576 63.6034 101.901 64.7963 101.906 66.0119C101.911 67.2275 101.596 68.423 100.992 69.4781C100.388 70.5332 99.5173 71.4108 98.4667 72.0224C98.364 71.961 98.2638 71.8957 98.1663 71.8266C99.8419 70.6061 100.645 68.3854 100.645 66.0397C100.645 63.6741 99.8286 61.4365 98.1244 60.2222C96.4204 61.4368 95.6036 63.6751 95.6036 66.0397C95.6036 69.5595 97.4114 72.798 101.265 72.798C105.118 72.798 106.925 69.5595 106.925 66.0397C106.925 62.5197 105.118 59.2814 101.265 59.2814C100.265 59.2615 99.2793 59.5204 98.4184 60.0292Z" fill="#113788"/>
<path d="M109.446 59.8392C110.5 59.8392 111.755 59.9302 112.61 59.4373V61.9178C113.38 60.0008 115.075 59.2374 116.83 59.2374C123.726 59.2374 123.762 72.8518 117.089 72.8518C115.07 72.8518 113.373 72.0967 112.61 70.2045V76.7745C112.61 77.6874 113.015 78.4209 113.855 78.5745H109.446C110.287 78.4209 110.693 77.6874 110.693 76.7745V61.6389C110.693 60.7263 110.287 59.9928 109.446 59.8392ZM112.61 69.1465C112.645 71.0005 114.425 72.4308 116.207 72.3259C121.218 72.0289 121.484 59.8 116.144 59.7047C114.425 59.6736 112.645 61.0878 112.61 62.9418V69.1465Z" fill="#113788"/>
<path d="M128.318 59.478C125.309 59.478 124.21 63.9806 129.431 65.0999C136.723 67.11 134.288 72.6331 129.08 72.8462C126.73 72.9428 123.741 71.7204 123.628 69.1422C123.565 67.8955 125.312 68.0951 124.914 69.0895C123.773 71.1949 126.539 72.6128 129.092 72.6128C132.576 72.6128 134.896 68.5948 128.741 66.8984C122.512 65.1829 124.057 59.3719 128.32 59.239C129.955 59.1887 131.509 59.9398 131.828 61.0878C132.079 61.9896 131.094 61.9622 131.094 61.4027C131.094 60.214 129.926 59.478 128.318 59.478Z" fill="#113788"/>
<path d="M65.3941 72.2562C65.0221 71.9703 64.7239 71.5995 64.5244 71.1748C64.3249 70.7501 64.2299 70.2838 64.2473 69.8149C64.2354 69.1732 64.378 68.538 64.6631 67.963C64.94 67.4221 65.3004 66.9281 65.7311 66.4994C66.1633 66.0673 66.6255 65.6664 67.1144 65.2996C67.6017 64.9343 68.0605 64.5806 68.4907 64.2386C68.8857 63.9314 69.2418 63.5773 69.5514 63.1842C69.8194 62.8496 69.966 62.434 69.9671 62.0053C69.9668 61.8359 69.9264 61.6691 69.8491 61.5183C69.7719 61.3676 69.66 61.2374 69.5227 61.1383C69.1688 60.8847 68.7388 60.7599 68.3042 60.7846C67.8407 60.7984 67.3828 60.8898 66.9496 61.055C66.3672 61.2739 65.8193 61.5753 65.3226 61.9498C65.5123 61.7112 65.7261 61.4927 65.9604 61.2977C66.2338 61.0819 66.5293 60.896 66.8421 60.7428C67.2645 60.537 67.7095 60.3811 68.168 60.2781C68.768 60.145 69.3813 60.0822 69.9958 60.091C71.305 60.091 72.3491 60.2898 73.1281 60.6873C73.8715 61.0488 74.4667 61.6567 74.8125 62.4076C75.1765 63.2568 75.3525 64.1748 75.3285 65.0985V69.8009C75.3379 70.3927 75.357 70.8666 75.3859 71.2227C75.3942 71.4894 75.45 71.7525 75.5507 71.9996C75.5803 72.072 75.631 72.1339 75.6961 72.1771C75.7613 72.2204 75.838 72.2431 75.9162 72.2422C76.1073 72.2422 76.2674 72.1196 76.3965 71.8745C76.5226 71.6387 76.6074 71.383 76.6474 71.1185C76.652 71.0687 76.6752 71.0225 76.7124 70.9891C76.7496 70.9557 76.798 70.9375 76.848 70.9383C76.868 70.9385 76.8876 70.9433 76.9054 70.9523C76.9264 70.9633 76.9437 70.9801 76.9555 71.0006C76.9719 71.0328 76.9794 71.0688 76.9771 71.1048L76.9628 71.2296C76.9034 71.6665 76.7304 72.0802 76.4609 72.4293C76.3467 72.5737 76.2005 72.6896 76.0339 72.7679C75.8672 72.8462 75.6847 72.8846 75.5006 72.8803C75.2388 72.8818 74.9806 72.8199 74.7479 72.7C74.4916 72.5554 74.292 72.328 74.1818 72.0551C74.0185 71.6333 73.9452 71.182 73.9666 70.7302C73.9629 70.6726 73.9369 70.6186 73.8941 70.5797C73.8513 70.5409 73.7951 70.5203 73.7373 70.5222C73.7029 70.523 73.6692 70.5323 73.6392 70.5492C73.6092 70.5661 73.5839 70.5902 73.5654 70.6192C73.1177 71.2382 72.5645 71.7736 71.9311 72.2007C71.3951 72.5546 70.8005 72.8105 70.175 72.9567C69.5941 73.0887 69.0004 73.1562 68.4046 73.1579C67.1621 73.1579 66.1586 72.8573 65.3941 72.2562ZM71.4365 72.0551C72.1747 71.6363 72.8016 71.0463 73.2643 70.3348C73.7279 69.6337 73.9724 68.8104 73.9666 67.9699V64.4604C73.9754 63.9611 73.9101 63.4632 73.7731 62.983C73.6608 62.5963 73.4813 62.2324 73.2427 61.908C73.0314 61.625 72.7747 61.379 72.483 61.1798C72.2113 60.9957 71.9175 60.8466 71.6085 60.736C71.3202 60.6329 71.0225 60.5585 70.7197 60.5139C70.4515 60.4742 70.1809 60.4533 69.9098 60.4515C69.7665 60.4793 69.6948 60.5486 69.6948 60.6596C69.6967 60.6953 69.7067 60.7302 69.7241 60.7615C69.7415 60.7928 69.7658 60.8197 69.7952 60.8401C70.0098 60.9888 70.1806 61.1924 70.2896 61.4296C70.3876 61.6453 70.439 61.8793 70.4403 62.1163C70.4362 62.6282 70.2706 63.1258 69.9671 63.5381C69.6229 64.0197 69.2315 64.4657 68.7988 64.8695C68.3352 65.3089 67.8717 65.7667 67.4083 66.243C66.9524 66.7091 66.5574 67.2311 66.2327 67.7965C65.909 68.3694 65.7433 69.0181 65.7525 69.6761C65.7364 70.25 65.8992 70.8147 66.2184 71.2919C66.5284 71.7404 66.9512 72.0993 67.4441 72.3323C67.9489 72.577 68.503 72.7028 69.064 72.7C69.898 72.6992 70.7169 72.4767 71.4365 72.0551Z" fill="#113788"/>
<path d="M20.0763 63.272C20.0763 68.9656 16.6863 72.6189 11.5191 72.6189H5.72663V72.52C6.84568 72.52 7.3064 71.8292 7.3064 70.0848V58.6972C7.3064 56.9529 6.84568 56.2617 5.72663 56.2617V56.1628H10.8938V56.2617C9.77478 56.2617 9.31405 56.9529 9.31405 58.6972V72.2897H11.1243C15.1394 72.2897 18.0687 68.8999 18.0687 63.3705C18.0687 56.6566 13.7242 52.6745 8.62288 52.6745C4.54188 52.6745 1.54675 55.2414 1.54675 59.191C1.54675 61.9225 2.99495 65.0164 6.02295 65.0164V65.1809C5.74131 65.2367 5.45405 65.2587 5.16721 65.2466C2.89626 65.2466 0 63.634 0 59.6515C0 55.3403 3.39 52.3453 8.78748 52.3453C15.0407 52.3453 20.0763 56.3606 20.0763 63.272Z" fill="#113788"/>
<path d="M79.615 72.4932C81.0266 72.4932 81.5664 71.6217 81.5664 69.4213V55.0565C81.5664 52.8561 81.0266 51.9842 79.615 51.9842V51.8595H86.0501V51.9842C84.6387 51.9842 84.0989 52.8561 84.0989 55.0565V71.9536C85.7132 71.9749 87.3021 72.358 88.7488 73.0746L92.0284 74.9426C96.6369 77.7244 98.8373 78.3887 100.664 78.3887C103.321 78.3887 105.397 76.9358 106.642 73.905H106.808C105.438 78.5134 103.612 80.1739 100.29 80.1739C98.4221 80.1739 96.1802 79.6343 91.6549 77.0187L86.7974 74.1955C85.0953 73.1993 83.8499 72.6179 81.3588 72.6179H79.615V72.4932Z" fill="#113788"/>
<path d="M64.5074 59.2348C64.249 56.5724 67.0152 54.7178 69.4823 55.5016C70.3845 55.767 71.1383 56.2677 72.0283 56.4892C73.7209 56.8686 75.5281 56.2059 76.717 54.919C76.0767 56.8865 73.8118 58.0341 71.7949 57.7101C71.1363 57.575 70.4978 57.3557 69.8952 57.0576C67.7104 55.9021 65.3469 56.7816 64.5074 59.2348Z" fill="#113788"/>
<path d="M99.3841 54.3554L100.414 54.9181L99.3845 55.4816C99.0906 55.6426 98.8489 55.8844 98.6882 56.1785L98.1255 57.2083L97.562 56.1789C97.401 55.885 97.1592 55.6433 96.8652 55.4826L95.8353 54.9199L96.8647 54.3563C97.1587 54.1954 97.4003 53.9536 97.561 53.6595L98.1237 52.6296L98.6873 53.6591C98.8482 53.953 99.09 54.1947 99.3841 54.3554Z" fill="#113788"/>
<path d="M71.6888 9.57071C69.4166 9.57071 67.5614 10.7756 67.5614 12.2611C67.5614 10.7756 65.7062 9.57071 63.4328 9.57071C65.7062 9.57071 67.5614 8.36452 67.5614 6.88038C67.5614 8.36452 69.4166 9.57071 71.6888 9.57071Z" fill="#113788"/>
<path d="M60.9032 0C51.1755 0 45.0664 5.39756 45.0664 13.1684C45.0664 20.3458 50.286 23.2519 54.3787 23.2519C54.8957 23.2737 55.4134 23.234 55.9211 23.1336V22.8365C50.4639 22.8365 47.8541 17.261 47.8541 12.3376C47.8541 5.21967 53.2517 0.593306 60.607 0.593306C69.801 0.593306 77.6305 7.77079 77.6305 19.8708C77.6305 27.1791 74.7912 32.413 70.4228 34.6848V35.9443C77.0977 34.1111 81.2491 28.1513 81.2491 19.6929C81.2491 7.23618 72.1734 0 60.9032 0ZM64.6997 7.05828V6.88037H55.3874V7.05828C57.4039 7.05828 58.2347 8.30449 58.2347 11.448V31.9718C58.2347 35.1153 57.4039 36.3606 55.3874 36.3606V36.5385H64.6988V35.9452H61.8524V11.448C61.8524 8.30448 62.6832 7.05828 64.6997 7.05828Z" fill="#113788"/>
<path d="M88.9336 38.773C88.8482 38.9891 88.7637 39.2169 88.6641 39.4286C88.5885 39.586 88.4737 39.8057 88.3945 39.9596C88.1754 40.3415 87.933 40.7095 87.6687 41.0617C86.0778 43.0965 83.7751 44.453 81.2242 44.8581C78.7718 45.2415 76.3016 44.6758 74.0005 43.9384C70.0395 42.6441 65.8116 40.7344 61.686 42.4734C62.862 41.4691 64.3083 40.9648 65.8187 40.7886C65.9802 39.9797 66.0521 39.1555 66.0331 38.3309V17.8072C66.0331 14.6636 65.382 13.4183 63.6794 13.4183V13.2395H71.4431V13.4183C69.7397 13.4183 69.0886 14.6636 69.0886 17.8072V40.8553C69.3919 40.898 69.6908 40.9479 69.9852 41.0066C73.8119 41.72 77.5078 43.6555 81.4483 43.1725C82.3801 43.0559 83.2916 42.8129 84.1578 42.4502C84.2565 42.4058 84.4611 42.3186 84.5599 42.2759C84.7591 42.1816 84.9557 42.082 85.1532 41.9832C85.6749 41.6984 86.1765 41.3783 86.6547 41.0252C86.8299 40.8927 87.0105 40.7379 87.1848 40.6036L87.3529 40.4524C87.6109 40.2318 87.8573 39.9818 88.0984 39.7425C88.1864 39.6456 88.2505 39.5717 88.3287 39.4855C88.5395 39.2631 88.7352 39.0078 88.9336 38.773Z" fill="#113788"/>
</svg>
